<?xml version="1.0" encoding="UTF-8"?>
<!DOCTYPE svg PUBLIC "-//W3C//DTD SVG 1.1//EN" "http://www.w3.org/Graphics/SVG/1.1/DTD/svg11.dtd">
<svg xmlns="http://www.w3.org/2000/svg" version="1.1" width="478px" height="151px" style="shape-rendering:geometricPrecision; text-rendering:geometricPrecision; image-rendering:optimizeQuality; fill-rule:evenodd; clip-rule:evenodd" xmlns:xlink="http://www.w3.org/1999/xlink">
<g><path style="opacity:0.63" fill="#eebaa8" d="M 102.5,23.5 C 102.5,23.8333 102.5,24.1667 102.5,24.5C 95.8333,24.5 89.1667,24.5 82.5,24.5C 89.0021,22.4377 95.6688,22.1044 102.5,23.5 Z"/></g>
<g><path style="opacity:0.733" fill="#eeb6a2" d="M 82.5,24.5 C 80.5615,26.1628 78.2282,26.8294 75.5,26.5C 77.5145,25.0762 79.8478,24.4095 82.5,24.5 Z"/></g>
<g><path style="opacity:1" fill="#ca4419" d="M 82.5,24.5 C 89.1667,24.5 95.8333,24.5 102.5,24.5C 109.332,25.5413 115.998,27.2079 122.5,29.5C 124.153,29.6596 125.486,30.3263 126.5,31.5C 126.973,32.9063 127.973,33.573 129.5,33.5C 129.973,34.9063 130.973,35.573 132.5,35.5C 133.167,35.5 133.5,35.8333 133.5,36.5C 135.833,39.5 138.5,42.1667 141.5,44.5C 141.738,46.4044 142.738,47.7377 144.5,48.5C 144.427,50.0269 145.094,51.0269 146.5,51.5C 153.02,64.0183 153.853,77.0183 149,90.5C 143.451,103.355 133.951,111.688 120.5,115.5C 112.854,116.207 105.187,116.54 97.5,116.5C 74.608,112.105 61.9413,98.2719 59.5,75C 59.3962,69.6411 60.7295,64.8078 63.5,60.5C 64.9063,60.0269 65.573,59.0269 65.5,57.5C 67.8333,55.8333 69.8333,53.8333 71.5,51.5C 71.8417,50.6618 72.5084,50.3284 73.5,50.5C 81.2972,48.389 88.6305,49.389 95.5,53.5C 97.261,52.9649 98.5943,51.9649 99.5,50.5C 106.763,48.7264 113.763,49.3931 120.5,52.5C 121.167,52.5 121.5,52.8333 121.5,53.5C 122.5,55.1667 123.833,56.5 125.5,57.5C 125.427,59.0269 126.094,60.0269 127.5,60.5C 132.943,70.3198 132.443,79.9865 126,89.5C 123.044,92.7224 119.544,95.0558 115.5,96.5C 112.5,96.5 109.5,96.5 106.5,96.5C 105.549,95.0813 105.216,93.4147 105.5,91.5C 107.54,89.823 109.54,88.1563 111.5,86.5C 113.404,86.2624 114.738,85.2624 115.5,83.5C 122.351,75.7171 122.018,68.2171 114.5,61C 107.873,58.2043 102.206,59.5376 97.5,65C 95.9343,65.765 94.6009,65.5983 93.5,64.5C 93.0269,63.0937 92.0269,62.427 90.5,62.5C 78.0775,56.6911 71.4108,60.8578 70.5,75C 70.8788,80.9155 72.5455,86.4155 75.5,91.5C 75.7376,93.4044 76.7376,94.7377 78.5,95.5C 79.8333,96.1667 80.8333,97.1667 81.5,98.5C 81.9731,99.9063 82.9731,100.573 84.5,100.5C 87.8987,102.199 91.232,103.866 94.5,105.5C 95.2625,106.268 96.2625,106.768 97.5,107C 103.833,107.667 110.167,107.667 116.5,107C 117.737,106.768 118.737,106.268 119.5,105.5C 122.089,105.539 124.089,104.539 125.5,102.5C 127.027,102.573 128.027,101.906 128.5,100.5C 131.5,99.5 133.5,97.5 134.5,94.5C 135.906,94.0269 136.573,93.0269 136.5,91.5C 146.398,67.1191 139.398,49.2858 115.5,38C 93.6083,30.1005 74.4416,34.2672 58,50.5C 49.4791,62.0087 47.3124,74.6754 51.5,88.5C 51.1201,90.698 51.7868,92.3646 53.5,93.5C 54.4408,95.0495 55.1075,96.7162 55.5,98.5C 55.427,100.027 56.0937,101.027 57.5,101.5C 57.7376,103.404 58.7376,104.738 60.5,105.5C 61.1667,108.167 62.8333,109.833 65.5,110.5C 66.2653,113.096 66.5987,115.763 66.5,118.5C 66.5674,119.959 66.2341,121.292 65.5,122.5C 64.218,123.708 64.218,125.042 65.5,126.5C 66.5223,126.145 67.189,125.478 67.5,124.5C 68.5137,123.326 69.847,122.66 71.5,122.5C 75.1888,120.326 79.1888,119.326 83.5,119.5C 86.134,122.088 86.134,124.754 83.5,127.5C 78.466,131.517 72.7993,134.184 66.5,135.5C 64.4727,135.338 62.4727,135.505 60.5,136C 59.944,136.383 59.6107,136.883 59.5,137.5C 58.1825,137.821 56.8492,138.154 55.5,138.5C 53.9623,138.547 52.9623,137.88 52.5,136.5C 52.7038,133.482 53.0371,130.482 53.5,127.5C 54.9238,125.485 55.5905,123.152 55.5,120.5C 55.6567,119.127 55.49,117.793 55,116.5C 41.2499,101.108 36.4165,83.4411 40.5,63.5C 41.9238,61.4855 42.5905,59.1522 42.5,56.5C 42.7073,53.7594 43.7073,51.4261 45.5,49.5C 47.2624,48.7377 48.2624,47.4044 48.5,45.5C 50.5869,44.4154 51.9202,42.7488 52.5,40.5C 54.7488,39.9202 56.4154,38.5869 57.5,36.5C 59.4044,36.2624 60.7377,35.2624 61.5,33.5C 63.0269,33.573 64.0269,32.9063 64.5,31.5C 66.1815,29.9925 68.1815,28.9925 70.5,28.5C 72.5529,28.5979 74.2196,27.9313 75.5,26.5C 78.2282,26.8294 80.5615,26.1628 82.5,24.5 Z"/></g>
<g><path style="opacity:0.098" fill="#f5d6cc" d="M 102.5,24.5 C 102.5,24.1667 102.5,23.8333 102.5,23.5C 109.798,23.7133 116.465,25.7133 122.5,29.5C 115.998,27.2079 109.332,25.5413 102.5,24.5 Z"/></g>
<g><path style="opacity:0.204" fill="#f3d2c7" d="M 75.5,26.5 C 74.2196,27.9313 72.5529,28.5979 70.5,28.5C 71.7804,27.0687 73.4471,26.4021 75.5,26.5 Z"/></g>
<g><path style="opacity:0.447" fill="#f0c7b9" d="M 64.5,31.5 C 64.0269,32.9063 63.0269,33.573 61.5,33.5C 61.9731,32.0937 62.9731,31.427 64.5,31.5 Z"/></g>
<g><path style="opacity:0.102" fill="#f5d8ce" d="M 126.5,31.5 C 128.027,31.427 129.027,32.0937 129.5,33.5C 127.973,33.573 126.973,32.9063 126.5,31.5 Z"/></g>
<g><path style="opacity:0.016" fill="#f7e0d8" d="M 129.5,33.5 C 131.027,33.427 132.027,34.0937 132.5,35.5C 130.973,35.573 129.973,34.9063 129.5,33.5 Z"/></g>
<g><path style="opacity:0.49" fill="#edb8a6" d="M 61.5,33.5 C 60.7377,35.2624 59.4044,36.2624 57.5,36.5C 58.2623,34.7376 59.5956,33.7376 61.5,33.5 Z"/></g>
<g><path style="opacity:0.008" fill="#f4d1c5" d="M 133.5,36.5 C 137.167,38.1667 139.833,40.8333 141.5,44.5C 138.5,42.1667 135.833,39.5 133.5,36.5 Z"/></g>
<g><path style="opacity:0.498" fill="#edbaa9" d="M 57.5,36.5 C 56.4154,38.5869 54.7488,39.9202 52.5,40.5C 53.5846,38.4131 55.2512,37.0798 57.5,36.5 Z"/></g>
<g><path style="opacity:0.604" fill="#eebaa8" d="M 52.5,40.5 C 51.9202,42.7488 50.5869,44.4154 48.5,45.5C 49.0798,43.2512 50.4131,41.5846 52.5,40.5 Z"/></g>
<g><path style="opacity:0.612" fill="#e9a68e" d="M 141.5,44.5 C 143.262,45.2623 144.262,46.5956 144.5,48.5C 142.738,47.7377 141.738,46.4044 141.5,44.5 Z"/></g>
<g><path style="opacity:0.427" fill="#efbdab" d="M 48.5,45.5 C 48.2624,47.4044 47.2624,48.7377 45.5,49.5C 45.7376,47.5956 46.7376,46.2623 48.5,45.5 Z"/></g>
<g><path style="opacity:0.384" fill="#f2ccbf" d="M 99.5,50.5 C 98.5943,51.9649 97.261,52.9649 95.5,53.5C 88.6305,49.389 81.2972,48.389 73.5,50.5C 76.1327,48.7497 79.1327,47.7497 82.5,47.5C 87.082,48.0616 91.4153,49.3949 95.5,51.5C 96.8492,51.1543 98.1825,50.821 99.5,50.5 Z"/></g>
<g><path style="opacity:0.386" fill="#efc2b3" d="M 120.5,52.5 C 113.763,49.3931 106.763,48.7264 99.5,50.5C 106.931,46.2363 113.931,46.903 120.5,52.5 Z"/></g>
<g><path style="opacity:0.208" fill="#f3cdc1" d="M 144.5,48.5 C 145.906,48.9731 146.573,49.9731 146.5,51.5C 145.094,51.0269 144.427,50.0269 144.5,48.5 Z"/></g>
<g><path style="opacity:0.004" fill="#f5d8ce" d="M 121.5,53.5 C 123.833,53.8333 125.167,55.1667 125.5,57.5C 123.833,56.5 122.5,55.1667 121.5,53.5 Z"/></g>
<g><path style="opacity:0.498" fill="#efc0b1" d="M 71.5,51.5 C 69.8333,53.8333 67.8333,55.8333 65.5,57.5C 66.5,54.5 68.5,52.5 71.5,51.5 Z"/></g>
<g><path style="opacity:0.949" fill="#e08566" d="M 42.5,56.5 C 42.5905,59.1522 41.9238,61.4855 40.5,63.5C 40.4095,60.8478 41.0762,58.5145 42.5,56.5 Z"/></g>
<g><path style="opacity:0.416" fill="#ecac96" d="M 65.5,57.5 C 65.573,59.0269 64.9063,60.0269 63.5,60.5C 63.427,58.9731 64.0937,57.9731 65.5,57.5 Z"/></g>
<g><path style="opacity:0.533" fill="#e8a38b" d="M 125.5,57.5 C 126.906,57.9731 127.573,58.9731 127.5,60.5C 126.094,60.0269 125.427,59.0269 125.5,57.5 Z"/></g>
<g><path style="opacity:1" fill="#ca461b" d="M 266.5,62.5 C 266.427,64.0269 267.094,65.0269 268.5,65.5C 269.631,73.0873 269.798,80.754 269,88.5C 265.979,91.2801 263.479,90.9467 261.5,87.5C 261.5,85.8333 261.5,84.1667 261.5,82.5C 259.265,82.2053 257.265,82.5386 255.5,83.5C 256.517,87.7888 254.85,90.1221 250.5,90.5C 248.971,90.4712 247.804,89.8045 247,88.5C 246.333,81.1667 246.333,73.8333 247,66.5C 248.837,61.4067 252.504,58.74 258,58.5C 261.404,58.8723 264.237,60.2056 266.5,62.5 Z M 256.5,68.5 C 260.068,68.7593 261.401,70.7593 260.5,74.5C 258.833,74.5 257.167,74.5 255.5,74.5C 255.325,72.3792 255.659,70.3792 256.5,68.5 Z"/></g>
<g><path style="opacity:1" fill="#cb481d" d="M 284.5,58.5 C 288.676,61.0613 292.843,61.0613 297,58.5C 302.05,59.0245 305.383,61.6912 307,66.5C 307.667,73.5 307.667,80.5 307,87.5C 304.582,89.6801 301.916,90.0135 299,88.5C 298.922,81.726 298.255,75.0594 297,68.5C 295.708,74.6622 295.041,80.9956 295,87.5C 292.582,89.6801 289.916,90.0135 287,88.5C 286.961,81.6638 286.294,74.9971 285,68.5C 283.708,74.6622 283.041,80.9956 283,87.5C 280.582,89.6801 277.916,90.0135 275,88.5C 274.333,80.8333 274.333,73.1667 275,65.5C 277.086,61.5547 280.253,59.2213 284.5,58.5 Z"/></g>
<g><path style="opacity:0.86" fill="#d66a45" d="M 313.5,60.5 C 319.319,59.3475 325.319,59.1808 331.5,60C 332.811,62.2735 332.811,64.4402 331.5,66.5C 331.739,64.5328 331.406,62.6995 330.5,61C 324.843,60.5006 319.176,60.3339 313.5,60.5 Z"/></g>
<g><path style="opacity:0.999" fill="#ca451a" d="M 184.5,61.5 C 184.427,63.0269 185.094,64.0269 186.5,64.5C 187.222,64.9175 187.722,65.5842 188,66.5C 192.529,85.9709 185.196,93.3042 166,88.5C 164.891,83.9445 164.391,79.2778 164.5,74.5C 164.391,69.7222 164.891,65.0555 166,60.5C 172.295,58.9533 178.461,59.2866 184.5,61.5 Z M 178.5,68.5 C 179.423,72.0641 179.756,75.7307 179.5,79.5C 177.621,80.3414 175.621,80.6747 173.5,80.5C 173.5,76.5 173.5,72.5 173.5,68.5C 175.167,68.5 176.833,68.5 178.5,68.5 Z"/></g>
<g><path style="opacity:1" fill="#c94216" d="M 215.5,63.5 C 215.427,65.0269 216.094,66.0269 217.5,66.5C 219.205,71.4124 218.539,76.0791 215.5,80.5C 218.804,85.0709 217.97,88.4043 213,90.5C 210.205,88.7068 207.705,86.5402 205.5,84C 204.552,83.5172 203.552,83.3505 202.5,83.5C 202.601,88.0717 200.601,90.0717 196.5,89.5C 196.217,88.7109 195.717,88.0442 195,87.5C 194.5,78.8397 194.334,70.1731 194.5,61.5C 196.915,60.1858 199.748,59.5191 203,59.5C 205.833,59.6667 208.667,59.8333 211.5,60C 213.324,60.66 214.657,61.8267 215.5,63.5 Z M 207.5,68.5 C 209.729,70.0993 210.062,72.0993 208.5,74.5C 206.5,74.5 204.5,74.5 202.5,74.5C 202.5,72.5 202.5,70.5 202.5,68.5C 204.167,68.5 205.833,68.5 207.5,68.5 Z"/></g>
<g><path style="opacity:0.999" fill="#cd4c22" d="M 224.5,59.5 C 230.176,59.3339 235.843,59.5006 241.5,60C 243.648,62.0749 243.982,64.4082 242.5,67C 238.954,68.1737 235.287,68.8404 231.5,69C 234.167,69.3333 236.833,69.6667 239.5,70C 242.167,72.6667 242.167,75.3333 239.5,78C 236.774,78.1816 234.107,78.6816 231.5,79.5C 235.312,80.0967 238.978,81.0967 242.5,82.5C 243.78,84.7016 243.78,86.8683 242.5,89C 236.5,89.6667 230.5,89.6667 224.5,89C 224,88.5 223.5,88 223,87.5C 222.333,78.8333 222.333,70.1667 223,61.5C 223.717,60.9558 224.217,60.2891 224.5,59.5 Z"/></g>
<g><path style="opacity:0.999" fill="#cd4b20" d="M 313.5,60.5 C 319.176,60.3339 324.843,60.5006 330.5,61C 331.406,62.6995 331.739,64.5328 331.5,66.5C 331.082,67.2216 330.416,67.7216 329.5,68C 326.5,68.3333 323.5,68.6667 320.5,69C 323.365,69.1829 326.031,69.6829 328.5,70.5C 328.833,71.5 329.5,72.1667 330.5,72.5C 331.757,74.368 331.424,76.0347 329.5,77.5C 317.823,79.0619 318.156,80.3952 330.5,81.5C 331.219,83.7638 331.552,86.0971 331.5,88.5C 325.681,89.6525 319.681,89.8192 313.5,89C 313,88.5 312.5,88 312,87.5C 311.333,79.1667 311.333,70.8333 312,62.5C 312.278,61.5842 312.778,60.9175 313.5,60.5 Z"/></g>
<g><path style="opacity:1" fill="#ca461b" d="M 358.5,88.5 C 356.097,88.552 353.764,88.2186 351.5,87.5C 349.637,85.2947 347.303,83.9613 344.5,83.5C 345.005,87.1632 343.505,89.4965 340,90.5C 338.324,89.9389 336.991,88.9389 336,87.5C 335.333,78.8333 335.333,70.1667 336,61.5C 336.5,61 337,60.5 337.5,60C 342.833,59.3333 348.167,59.3333 353.5,60C 361.767,65.5554 363.1,72.3887 357.5,80.5C 360.541,83.1061 360.875,85.7728 358.5,88.5 Z M 350.5,68.5 C 351.833,70.5 351.833,72.5 350.5,74.5C 348.5,74.5 346.5,74.5 344.5,74.5C 344.5,72.5 344.5,70.5 344.5,68.5C 346.5,68.5 348.5,68.5 350.5,68.5 Z"/></g>
<g><path style="opacity:0.999" fill="#cd4c22" d="M 383.5,65.5 C 382.5,65.8333 381.833,66.5 381.5,67.5C 378.375,68.4794 375.042,68.8128 371.5,68.5C 370.957,68.56 370.624,68.8933 370.5,69.5C 372.396,70.4656 374.396,70.7989 376.5,70.5C 383.472,71.4167 386.306,75.4167 385,82.5C 384.654,84.8477 383.487,86.6811 381.5,88C 375.947,89.5699 370.281,89.9032 364.5,89C 362.327,87.1353 361.993,84.9686 363.5,82.5C 367.676,80.9785 372.009,80.1452 376.5,80C 373.5,78.9261 370.5,78.0928 367.5,77.5C 367.027,76.0937 366.027,75.427 364.5,75.5C 361.428,70.2502 362.094,65.4168 366.5,61C 371.718,59.4372 377.051,59.1038 382.5,60C 384.553,61.6779 384.887,63.5112 383.5,65.5 Z"/></g>
<g><path style="opacity:0.796" fill="#e89c81" d="M 90.5,62.5 C 92.0269,62.427 93.0269,63.0937 93.5,64.5C 91.9731,64.573 90.9731,63.9063 90.5,62.5 Z"/></g>
<g><path style="opacity:0.71" fill="#ecaa93" d="M 184.5,61.5 C 185.906,61.9731 186.573,62.9731 186.5,64.5C 185.094,64.0269 184.427,63.0269 184.5,61.5 Z"/></g>
<g><path style="opacity:0.781" fill="#d66c49" d="M 194.5,61.5 C 194.334,70.1731 194.5,78.8397 195,87.5C 195.717,88.0442 196.217,88.7109 196.5,89.5C 195.504,89.5858 194.671,89.2524 194,88.5C 193.176,79.3238 193.343,70.3238 194.5,61.5 Z"/></g>
<g><path style="opacity:0.4" fill="#edb29e" d="M 266.5,62.5 C 267.906,62.9731 268.573,63.9731 268.5,65.5C 267.094,65.0269 266.427,64.0269 266.5,62.5 Z"/></g>
<g><path style="opacity:0.408" fill="#edb09b" d="M 215.5,63.5 C 216.906,63.9731 217.573,64.9731 217.5,66.5C 216.094,66.0269 215.427,65.0269 215.5,63.5 Z"/></g>
<g><path style="opacity:0.012" fill="#f2cabc" d="M 383.5,65.5 C 383.5,66.8333 382.833,67.5 381.5,67.5C 381.833,66.5 382.5,65.8333 383.5,65.5 Z"/></g>
<g><path style="opacity:0.307" fill="#eec4b6" d="M 207.5,68.5 C 205.833,68.5 204.167,68.5 202.5,68.5C 202.5,70.5 202.5,72.5 202.5,74.5C 204.5,74.5 206.5,74.5 208.5,74.5C 206.393,75.4682 204.059,75.8016 201.5,75.5C 201.5,72.8333 201.5,70.1667 201.5,67.5C 203.735,67.2053 205.735,67.5386 207.5,68.5 Z"/></g>
<g><path style="opacity:0.567" fill="#e8a893" d="M 350.5,68.5 C 348.5,68.5 346.5,68.5 344.5,68.5C 344.5,70.5 344.5,72.5 344.5,74.5C 346.5,74.5 348.5,74.5 350.5,74.5C 348.393,75.4682 346.059,75.8016 343.5,75.5C 343.5,72.8333 343.5,70.1667 343.5,67.5C 346.059,67.1984 348.393,67.5318 350.5,68.5 Z"/></g>
<g><path style="opacity:0.14" fill="#f3cfc2" d="M 371.5,68.5 C 373.167,69.1667 374.833,69.8333 376.5,70.5C 374.396,70.7989 372.396,70.4656 370.5,69.5C 370.624,68.8933 370.957,68.56 371.5,68.5 Z"/></g>
<g><path style="opacity:0.004" fill="#f4cdc1" d="M 328.5,70.5 C 329.833,70.5 330.5,71.1667 330.5,72.5C 329.5,72.1667 328.833,71.5 328.5,70.5 Z"/></g>
<g><path style="opacity:0.183" fill="#f1c9bb" d="M 178.5,68.5 C 179.787,69.8714 180.453,71.7047 180.5,74C 180.494,76.0326 180.161,77.866 179.5,79.5C 179.756,75.7307 179.423,72.0641 178.5,68.5 Z"/></g>
<g><path style="opacity:0.467" fill="#ecaf9a" d="M 364.5,75.5 C 366.027,75.427 367.027,76.0937 367.5,77.5C 365.973,77.573 364.973,76.9063 364.5,75.5 Z"/></g>
<g><path style="opacity:0.087" fill="#f6d8ce" d="M 179.5,79.5 C 179.03,80.6935 178.03,81.3601 176.5,81.5C 175.274,81.4805 174.274,81.1471 173.5,80.5C 175.621,80.6747 177.621,80.3414 179.5,79.5 Z"/></g>
<g><path style="opacity:0.451" fill="#e6a792" d="M 255.5,83.5 C 257.265,82.5386 259.265,82.2053 261.5,82.5C 261.5,84.1667 261.5,85.8333 261.5,87.5C 260.566,86.4324 260.232,85.099 260.5,83.5C 258.833,83.5 257.167,83.5 255.5,83.5 Z"/></g>
<g><path style="opacity:0.337" fill="#f1c7b9" d="M 115.5,83.5 C 114.738,85.2624 113.404,86.2624 111.5,86.5C 112.262,84.7376 113.596,83.7376 115.5,83.5 Z"/></g>
<g><path style="opacity:0.816" fill="#e28c6e" d="M 330.5,81.5 C 331.993,82.3121 332.66,83.6455 332.5,85.5C 332.48,86.7261 332.147,87.7261 331.5,88.5C 331.552,86.0971 331.219,83.7638 330.5,81.5 Z"/></g>
<g><path style="opacity:0.976" fill="#e48665" d="M 351.5,87.5 C 353.764,88.2186 356.097,88.552 358.5,88.5C 356.08,90.6173 353.746,90.2839 351.5,87.5 Z"/></g>
<g><path style="opacity:0.396" fill="#f0c3b4" d="M 111.5,86.5 C 109.54,88.1563 107.54,89.823 105.5,91.5C 106.268,88.4384 108.268,86.7717 111.5,86.5 Z"/></g>
<g><path style="opacity:0.851" fill="#e99f85" d="M 51.5,88.5 C 52.5375,89.9303 53.2041,91.597 53.5,93.5C 51.7868,92.3646 51.1201,90.698 51.5,88.5 Z"/></g>
<g><path style="opacity:0.718" fill="#ecaf9a" d="M 75.5,91.5 C 77.2624,92.2623 78.2624,93.5956 78.5,95.5C 76.7376,94.7377 75.7376,93.4044 75.5,91.5 Z"/></g>
<g><path style="opacity:0.373" fill="#edb9a7" d="M 136.5,91.5 C 136.573,93.0269 135.906,94.0269 134.5,94.5C 134.427,92.9731 135.094,91.9731 136.5,91.5 Z"/></g>
<g><path style="opacity:0.969" fill="#e08564" d="M 106.5,96.5 C 109.5,96.5 112.5,96.5 115.5,96.5C 112.461,99.017 109.461,99.017 106.5,96.5 Z"/></g>
<g><path style="opacity:0.004" fill="#f8e4dd" d="M 81.5,98.5 C 83.0269,98.427 84.0269,99.0937 84.5,100.5C 82.9731,100.573 81.9731,99.9063 81.5,98.5 Z"/></g>
<g><path style="opacity:0.718" fill="#e59579" d="M 134.5,94.5 C 133.5,97.5 131.5,99.5 128.5,100.5C 130.167,98.1667 132.167,96.1667 134.5,94.5 Z"/></g>
<g><path style="opacity:0.369" fill="#edb7a5" d="M 55.5,98.5 C 56.9063,98.9731 57.573,99.9731 57.5,101.5C 56.0937,101.027 55.427,100.027 55.5,98.5 Z"/></g>
<g><path style="opacity:0.384" fill="#f1cdc1" d="M 128.5,100.5 C 128.027,101.906 127.027,102.573 125.5,102.5C 125.973,101.094 126.973,100.427 128.5,100.5 Z"/></g>
<g><path style="opacity:0.439" fill="#eebbaa" d="M 57.5,101.5 C 59.2624,102.262 60.2624,103.596 60.5,105.5C 58.7376,104.738 57.7376,103.404 57.5,101.5 Z"/></g>
<g><path style="opacity:0.133" fill="#f4d7cd" d="M 125.5,102.5 C 124.089,104.539 122.089,105.539 119.5,105.5C 121.181,103.992 123.181,102.992 125.5,102.5 Z"/></g>
<g><path style="opacity:0.906" fill="#eba289" d="M 60.5,105.5 C 62.5,106.833 64.1667,108.5 65.5,110.5C 62.8333,109.833 61.1667,108.167 60.5,105.5 Z"/></g>
<g><path style="opacity:0.058" fill="#f7e0d8" d="M 94.5,105.5 C 102.833,106.833 111.167,106.833 119.5,105.5C 118.737,106.268 117.737,106.768 116.5,107C 110.167,107.667 103.833,107.667 97.5,107C 96.2625,106.768 95.2625,106.268 94.5,105.5 Z"/></g>
<g><path style="opacity:0.094" fill="#f3ccc0" d="M 65.5,110.5 C 67.0265,111.492 67.6932,112.992 67.5,115C 67.4857,116.385 67.1524,117.551 66.5,118.5C 66.5987,115.763 66.2653,113.096 65.5,110.5 Z"/></g>
<g><path style="opacity:0.841" fill="#db7755" d="M 120.5,115.5 C 119.737,116.268 118.737,116.768 117.5,117C 110.654,117.821 103.987,117.654 97.5,116.5C 105.187,116.54 112.854,116.207 120.5,115.5 Z"/></g>
<g><path style="opacity:0.133" fill="#f2cbbe" d="M 83.5,119.5 C 79.1888,119.326 75.1888,120.326 71.5,122.5C 73.874,120.223 76.7073,118.556 80,117.5C 81.4595,117.808 82.6261,118.475 83.5,119.5 Z"/></g>
<g><path style="opacity:0.898" fill="#e59174" d="M 55.5,120.5 C 55.5905,123.152 54.9238,125.485 53.5,127.5C 53.4095,124.848 54.0762,122.515 55.5,120.5 Z"/></g>
<g><path style="opacity:0.016" fill="#f0c6b8" d="M 65.5,122.5 C 65.5,123.833 66.1667,124.5 67.5,124.5C 67.189,125.478 66.5223,126.145 65.5,126.5C 64.218,125.042 64.218,123.708 65.5,122.5 Z"/></g>
<g><path style="opacity:0.514" fill="#ebaf9a" d="M 53.5,127.5 C 53.0371,130.482 52.7038,133.482 52.5,136.5C 51.1851,133.373 51.5185,130.373 53.5,127.5 Z"/></g>
<g><path style="opacity:0.925" fill="#e08464" d="M 66.5,135.5 C 64.4006,136.612 62.0673,137.279 59.5,137.5C 59.6107,136.883 59.944,136.383 60.5,136C 62.4727,135.505 64.4727,135.338 66.5,135.5 Z"/></g>
</svg>
